<svg xmlns="http://www.w3.org/2000/svg" width="152" height="155" viewBox="0 0 152 155">
  <g fill="none" fill-rule="evenodd" transform="translate(1)">
    <path stroke="#3F3F3F" stroke-linecap="round" stroke-linejoin="round" stroke-width="2" d="M75.1057344,48.2200734 C40.1477086,48.2200734 19.8009261,48.2200734 14.0653871,48.2200734 C5.4620786,48.2200734 0,53.883184 0,61.989179 C0,70.095174 0,129.85441 0,138.485948 C0,147.117487 3.23276352,153.413634 14.0653871,153.413634 C21.2871362,153.413634 41.649004,153.413634 75.1509906,153.413634"/>
    <path stroke="#3F3F3F" stroke-linecap="round" stroke-linejoin="round" stroke-width="2" d="M75.0537658,61.5751258 C37.7598886,61.5751258 18.402711,61.5751258 16.9822332,61.5751258 C14.8515165,61.5751258 13.097448,63.4041208 13.097448,65.3064648 C13.097448,67.2088088 13.097448,134.24333 13.097448,136.183764 C13.097448,138.124199 14.486868,140.279485 17.3233831,140.279485 C19.2143932,140.279485 38.465683,140.279485 75.0772528,140.279485"/>
    <path stroke="#3F3F3F" stroke-linecap="round" stroke-linejoin="round" stroke-width="2" d="M149.768286,48.2200734 C114.81026,48.2200734 94.463478,48.2200734 88.727939,48.2200734 C80.1246304,48.2200734 74.6625518,53.883184 74.6625518,61.989179 C74.6625518,70.095174 74.6625518,129.85441 74.6625518,138.485948 C74.6625518,147.117487 77.8953154,153.413634 88.727939,153.413634 C95.949688,153.413634 116.311556,153.413634 149.813542,153.413634" transform="matrix(-1 0 0 1 224.476 0)"/>
    <path stroke="#3F3F3F" stroke-linecap="round" stroke-linejoin="round" stroke-width="2" d="M136.69261,61.5751258 C99.3987324,61.5751258 80.0415548,61.5751258 78.621077,61.5751258 C76.4903604,61.5751258 74.7362918,63.4041208 74.7362918,65.3064648 C74.7362918,67.2088088 74.7362918,134.24333 74.7362918,136.183764 C74.7362918,138.124199 76.1257118,140.279485 78.962227,140.279485 C80.853237,140.279485 100.104527,140.279485 136.716097,140.279485" transform="matrix(-1 0 0 1 211.452 0)"/>
    <line x1="48.76" x2="75.056" y1="21.587" y2="48.093" stroke="#3F3F3F" stroke-linecap="round" stroke-linejoin="round" stroke-width="2"/>
    <line x1="115.621" x2="75.056" y1="7.886" y2="48.093" stroke="#3F3F3F" stroke-linecap="round" stroke-linejoin="round" stroke-width="2"/>
    <path stroke="#3F3F3F" stroke-linecap="round" stroke-linejoin="round" stroke-width="2" d="M22.7924864 85.0804968C27.1297358 85.0804968 27.4455824 77.9142858 34.3725038 77.9142858 41.2994252 77.9142858 41.344589 85.1032686 47.2952134 85.1032686 53.2458378 85.1032686 53.5187186 77.9142858 60.4447306 77.9142858 67.3707428 77.9142858 66.81777 85.1032686 73.426876 85.1032686 80.035982 85.1032686 80.0526812 78.43989 86.291747 78.43989 92.5308128 78.43989 92.5976098 85.1032686 99.4177336 85.1032686 106.237857 85.1032686 105.663631 78.43989 112.273496 78.43989 118.883361 78.43989 118.462844 85.1032686 123.883646 85.1032686M22.7924864 104.623354C27.1297358 104.623354 27.4455824 97.4571428 34.3725038 97.4571428 41.2994252 97.4571428 41.344589 104.646126 47.2952134 104.646126 53.2458378 104.646126 53.5187186 97.4571428 60.4447306 97.4571428 67.3707428 97.4571428 66.81777 104.646126 73.426876 104.646126 80.035982 104.646126 80.0526812 97.9827472 86.291747 97.9827472 92.5308128 97.9827472 92.5976098 104.646126 99.4177336 104.646126 106.237857 104.646126 105.663631 97.9827472 112.273496 97.9827472 118.883361 97.9827472 118.462844 104.646126 123.883646 104.646126M22.7924864 124.166211C27.1297358 124.166211 27.4455824 117 34.3725038 117 41.2994252 117 41.344589 124.188983 47.2952134 124.188983 53.2458378 124.188983 53.5187186 117 60.4447306 117 67.3707428 117 66.81777 124.188983 73.426876 124.188983 80.035982 124.188983 80.0526812 117.525604 86.291747 117.525604 92.5308128 117.525604 92.5976098 124.188983 99.4177336 124.188983 106.237857 124.188983 105.663631 117.525604 112.273496 117.525604 118.883361 117.525604 118.462844 124.188983 123.883646 124.188983"/>
    <g transform="rotate(-90 33.694 -7.5)">
      <circle cx="7.194" cy="6" r="6" fill="#C2C2C2"/>
      <circle cx="7.194" cy="6" r="4.5" stroke="#151515" stroke-width="3"/>
      <circle cx="7.194" cy="6" r="6" stroke="#151515" stroke-width="2"/>
    </g>
    <g transform="rotate(-90 62.694 -48.5)">
      <circle cx="7.194" cy="6" r="6" fill="#C2C2C2"/>
      <circle cx="7.194" cy="6" r="4.5" stroke="#151515" stroke-width="3"/>
      <circle cx="7.194" cy="6" r="6" stroke="#151515" stroke-width="2"/>
    </g>
  </g>
</svg>
